<svg width="64" height="64" viewBox="0 0 64 64" fill="none" xmlns="http://www.w3.org/2000/svg">
<path d="M50.7898 16.451L50.7901 16.4521L54.4381 27.3961L54.5817 27.827L55.0008 28.0023C55.789 28.3321 56.4621 28.8876 56.9355 29.5988C57.4089 30.3101 57.6615 31.1454 57.6615 31.9998V45.3315C57.6602 46.0884 57.4595 46.8316 57.0796 47.4863C56.6996 48.1409 56.1539 48.6838 55.4973 49.0604L54.9948 49.3486V49.9278V55.9998C54.9948 56.4419 54.8192 56.8658 54.5066 57.1784C54.1941 57.4909 53.7701 57.6665 53.3281 57.6665H50.6615C50.2194 57.6665 49.7955 57.4909 49.4829 57.1784C49.1704 56.8658 48.9948 56.4419 48.9948 55.9998V50.6665V49.6665H47.9948H15.9948H14.9948V50.6665V55.9998C14.9948 56.4419 14.8192 56.8658 14.5066 57.1784C14.1941 57.4909 13.7702 57.6665 13.3281 57.6665H10.6615C10.2194 57.6665 9.79551 57.4909 9.48295 57.1784C9.17039 56.8658 8.99479 56.4419 8.99479 55.9998V49.9278V49.3529L8.49794 49.0636C7.19643 48.3059 6.32812 46.9229 6.32812 45.3332V31.9998C6.32812 31.1454 6.5807 30.3101 7.0541 29.5988C7.52751 28.8876 8.20061 28.3321 8.98879 28.0023L9.40783 27.827L9.55147 27.3961L13.1995 16.4521L13.1998 16.451C13.6628 15.0572 14.5532 13.8446 15.7446 12.9857C16.936 12.1268 18.3678 11.6652 19.8366 11.6665H19.8375L44.1521 11.6665L44.153 11.6665C45.6218 11.6652 47.0536 12.1268 48.245 12.9857C49.4364 13.8446 50.3268 15.0572 50.7898 16.451Z" stroke="#233143" stroke-width="2"/>
<circle cx="46" cy="39" r="4" stroke="#FFC001" stroke-width="2"/>
<circle cx="17" cy="39" r="4" stroke="#FFC001" stroke-width="2"/>
</svg>
