<svg width="64" height="64" viewBox="0 0 64 64" fill="none" xmlns="http://www.w3.org/2000/svg">
<path d="M58.668 32H61.3346M32.0013 5.33329V2.66663M32.0013 61.3333V58.6666M53.3346 53.3333L50.668 50.6666M53.3346 10.6666L50.668 13.3333M10.668 53.3333L13.3346 50.6666M10.668 10.6666L13.3346 13.3333M2.66797 32H5.33464M26.54 25.6613L30.6973 16.848C30.8093 16.5956 30.9921 16.3812 31.2236 16.2307C31.455 16.0802 31.7252 16.0001 32.0013 16.0001C32.2774 16.0001 32.5476 16.0802 32.779 16.2307C33.0105 16.3812 33.1933 16.5956 33.3053 16.848L37.4626 25.6613L46.756 27.0826C47.948 27.264 48.4226 28.8 47.5613 29.68L40.836 36.5333L42.4226 46.216C42.628 47.4613 41.38 48.408 40.3133 47.8213L32.0013 43.248L23.6893 47.8213C22.6226 48.408 21.3746 47.4613 21.58 46.216L23.1666 36.536L16.4413 29.68C15.58 28.8 16.0546 27.264 17.2466 27.0826L26.54 25.6613Z" stroke="#FFC001" stroke-width="1.8" stroke-linecap="round" stroke-linejoin="round"/>
<path d="M58.6641 31.9998H61.3307M31.9974 5.33317V2.6665M31.9974 61.3332V58.6665M53.3307 53.3332L50.6641 50.6665M53.3307 10.6665L50.6641 13.3332M10.6641 53.3332L13.3307 50.6665M10.6641 10.6665L13.3307 13.3332M2.66406 31.9998H5.33073" stroke="#233143" stroke-width="1.8" stroke-linecap="round" stroke-linejoin="round"/>
</svg>
